<svg version="1.1" xmlns="http://www.w3.org/2000/svg" xmlns:xlink="http://www.w3.org/1999/xlink" width="387.35998" height="231.75169" viewBox="0,0,387.35998,231.75169"><defs><radialGradient cx="299.49999" cy="235.00001" r="7.68751" gradientUnits="userSpaceOnUse" id="color-1"><stop offset="0" stop-color="#ff0000"/><stop offset="1" stop-color="#ff0000" stop-opacity="0"/></radialGradient></defs><g transform="translate(-41.08165,-37.08168)"><g data-paper-data="{&quot;isPaintingLayer&quot;:true}" fill-rule="nonzero" stroke-linejoin="miter" stroke-miterlimit="10" stroke-dasharray="" stroke-dashoffset="0" style="mix-blend-mode: normal"><g><text transform="translate(63.28586,180.70354) scale(2.23504,2.23502)" font-size="40" xml:space="preserve" fill="#ffffff" fill-rule="nonzero" stroke="none" stroke-width="1" stroke-linecap="butt" stroke-linejoin="miter" stroke-miterlimit="10" stroke-dasharray="" stroke-dashoffset="0" font-family="Sans Serif" font-weight="normal" text-anchor="start" style="mix-blend-mode: normal"><tspan x="0" dy="0">审判</tspan></text><g fill="#ffffff" stroke-width="0" stroke-linecap="butt"><path d="M246.28673,134.98018c1.24196,-1.45359 3.42716,-1.62514 4.88075,-0.38317c1.4536,1.24197 1.62516,3.42716 0.38319,4.88075c-1.24197,1.45359 -7.92474,6.88909 -9.37833,5.64712c-1.4536,-1.24197 2.87243,-8.69111 4.11439,-10.1447z" stroke="#888888"/><g stroke="#888888"><g><path d="M273.45129,101.20149l3.5609,3.04247l-22.62016,26.47453l-3.5609,-3.04248z"/><path d="M257.95293,133.76097l-3.5609,-3.04248l22.62016,-26.47452l3.5609,3.04247z"/></g><g><path d="M274.65459,102.30103l2.73915,2.34036l-22.62016,26.47452l-2.73915,-2.34036z"/><path d="M256.67909,132.74399l-2.73915,-2.34036l22.62016,-26.47452l2.73915,2.34036z"/></g><g><path d="M273.59664,101.3971l1.76767,1.51032l-22.62016,26.47451l-1.76767,-1.51032z"/><path d="M254.38257,130.78182l-1.76767,-1.51032l22.62016,-26.47451l1.76767,1.51032z"/></g></g><g stroke="#888888"><g><path d="M251.0012,127.47695l3.5609,3.04248l-2.54466,2.97826l-2.55456,-2.18265z"/><path d="M254.72684,135.81262l-2.70938,-2.31494l2.54466,-2.97826l3.5609,3.04248z"/></g><g><path d="M252.23582,128.53985l2.73915,2.34037l-2.54466,2.97825l-2.73915,-2.34037z"/><path d="M254.33581,135.48656l-2.73915,-2.34037l2.54465,-2.97825l2.73915,2.34037z"/></g><g><path d="M251.08939,127.56034l1.85613,1.5859l-2.54465,2.97825l-0.92721,-0.79222z"/><path d="M252.03927,133.52438l-1.76767,-1.51032l2.54465,-2.97825l1.76767,1.51032z"/></g></g><g stroke="#888888"><g><path d="M249.56041,131.24568l2.60617,2.22674l-2.80881,3.28742l-2.60617,-2.22674z"/><path d="M251.96392,138.98657l-2.60616,-2.22674l2.80881,-3.28742l2.60616,2.22674z"/></g><g><path d="M250.46252,132.02534l2.00474,1.71288l-2.80881,3.28742l-2.00474,-1.71287z"/><path d="M251.05305,138.2172l-2.00474,-1.71287l2.80881,-3.28742l2.00475,1.71288z"/></g><g><path d="M249.68823,131.36377l1.29372,1.10538l-2.80881,3.28742l-1.29372,-1.10538z"/><path d="M249.37226,136.78111l-1.29372,-1.10537l2.80881,-3.28742l1.29372,1.10537z"/></g></g><g stroke="#888888"><g><path d="M273.2852,100.92566l3.79314,3.2409l-2.01636,2.35994l-3.79314,-3.2409z"/><path d="M278.8551,109.7674l-3.79314,-3.2409l2.01636,-2.35994l3.79314,3.2409z"/></g><g><path d="M274.60141,102.05662l2.9178,2.49299l-2.01636,2.35994l-2.91779,-2.493z"/><path d="M277.53261,108.6438l-2.91779,-2.493l2.01636,-2.35994l2.91779,2.493z"/></g><g><path d="M273.47445,101.09373l1.88295,1.60882l-2.01636,2.35994l-1.88295,-1.60882z"/><path d="M275.08633,106.55366l-1.88295,-1.60882l2.01635,-2.35993l1.88295,1.60881z"/></g></g><path d="M271.59063,103.44191l7.05987,6.03204l-0.95243,1.11472l-7.05987,-6.03204z" stroke="none"/><g stroke="#888888"><g><path d="M274.21837,100.66944l3.38027,2.88814l-0.60755,0.71107l-3.38027,-2.88814z"/><path d="M280.37136,107.15682l-3.38027,-2.88815l0.60755,-0.71107l3.38027,2.88814z"/></g><g><path d="M275.39315,101.67513l2.60021,2.22165l-0.60755,0.71107l-2.60021,-2.22165z"/><path d="M279.19467,106.15336l-2.60021,-2.22166l0.60755,-0.71108l2.60022,2.22166z"/></g><g><path d="M274.38888,100.81705l1.67801,1.43371l-0.60756,0.71108l-1.67801,-1.43371z"/><path d="M277.01464,104.2907l-1.678,-1.43371l0.60755,-0.71107l1.678,1.43371z"/></g></g><g stroke="#888888"><g><path d="M274.37872,99.6458l3.76733,3.21885l-0.60756,0.71107l-3.76732,-3.21885z"/><path d="M281.30584,106.79458l-3.76732,-3.21885l0.60755,-0.71107l3.76733,3.21885z"/></g><g><path d="M275.68816,100.76651l2.89794,2.47604l-0.60756,0.71107l-2.89794,-2.47603z"/><path d="M279.99451,105.67609l-2.89795,-2.47604l0.60755,-0.71107l2.89795,2.47604z"/></g><g><path d="M274.56888,99.81018l1.87013,1.59786l-0.60755,0.71108l-1.87014,-1.59787z"/><path d="M277.56487,103.60016l-1.87014,-1.59787l0.60755,-0.71107l1.87014,1.59787z"/></g></g><g stroke="none"><path d="M247.67211,142.97224c-5.07088,3.58405 -5.70873,1.97921 -5.70873,1.97921l7.14321,-8.36037l2.32232,1.98422c0,0 -1.83121,3.03594 -3.7568,4.39695z"/><path d="M242.42787,145.3483c0,0 -1.85832,-0.48192 1.17892,-5.95668c1.0795,-1.94584 3.64196,-4.38792 3.64196,-4.38792l2.32232,1.98422z"/></g></g><text transform="translate(246.28587,179.70354) scale(2.23504,2.23502)" font-size="40" xml:space="preserve" fill="#ffffff" fill-rule="nonzero" stroke="none" stroke-width="1" stroke-linecap="butt" stroke-linejoin="miter" stroke-miterlimit="10" stroke-dasharray="" stroke-dashoffset="0" font-family="Sans Serif" font-weight="normal" text-anchor="start" style="mix-blend-mode: normal"><tspan x="0" dy="0">行动</tspan></text><g fill="#ffffff" stroke-width="0" stroke-linecap="butt"><path d="M264.92841,112.99051c2.67835,0 4.84959,11.87042 4.84959,14.54877c0,2.67835 -2.17124,4.84959 -4.84959,4.84959c-2.67835,0 -4.84959,-2.17124 -4.84959,-4.84959c0,-2.67835 2.17124,-14.54877 4.84959,-14.54877z" stroke="#888888"/><g stroke="#888888"><g><path d="M258.27214,139.45406h6.56121v48.78118h-6.56121z"/><path d="M271.39455,188.23524h-6.56121v-48.78118h6.56121z"/></g><g><path d="M260.55429,139.37799h5.04708v48.78118h-5.04708z"/><path d="M269.1124,188.15917h-5.04708v-48.78118h5.04708z"/></g><g><path d="M258.60495,139.37799h3.25705v48.78118h-3.25705z"/><path d="M264.88088,188.15917h-3.25705v-48.78118h3.25705z"/></g></g><g stroke="#888888"><g><path d="M260.12638,134.33318h4.70696v5.48765h-6.56121z"/><path d="M271.39455,139.82083h-6.56121v-5.48765h4.99223z"/></g><g><path d="M260.55429,134.32463h5.04708v5.48765h-5.04708z"/><path d="M269.1124,139.81228h-5.04708v-5.48765h5.04708z"/></g><g><path d="M260.15358,134.32463h1.70844v5.48765h-3.42006z"/><path d="M264.88088,139.81228h-3.25705v-5.48765h3.25705z"/></g></g><g stroke="#888888"><g><path d="M260.16713,128.43849h4.80205v6.0573h-4.80205z"/><path d="M269.77124,134.49579h-4.80204v-6.0573h4.80204z"/></g><g><path d="M261.83741,128.42905h3.69388v6.0573h-3.69388z"/><path d="M268.10096,134.48635h-3.69388v-6.0573h3.69388z"/></g><g><path d="M260.41074,128.42905h2.38378v6.0573h-2.38378z"/><path d="M265.00397,134.48635h-2.38378v-6.0573h2.38378z"/></g></g><g stroke="#888888"><g><path d="M257.84423,184.02953h6.98912v4.34834h-6.98912z"/><path d="M271.82246,188.37787h-6.98912v-4.34834h6.98912z"/></g><g><path d="M260.27522,184.02275h5.37624v4.34834h-5.37624z"/><path d="M269.39144,188.37109h-5.37624v-4.34834h5.37624z"/></g><g><path d="M258.19874,184.02275h3.46947v4.34834h-3.46947z"/><path d="M264.88399,188.37109h-3.46947v-4.34834h3.46947z"/></g></g><path d="M258.32919,182.10193h13.00831v2.05394h-13.00831z" stroke="none"/><g stroke="#888888"><g><path d="M258.60495,188.18974h6.22839v1.3102h-6.22839z"/><path d="M271.06174,189.49993h-6.22839v-1.3102h6.22839z"/></g><g><path d="M260.77135,188.18769h4.79108v1.3102h-4.79108z"/><path d="M268.89536,189.49789h-4.79108v-1.3102h4.79108z"/></g><g><path d="M258.92087,188.18769h3.09184v1.3102h-3.09184z"/><path d="M264.87847,189.49789h-3.09184v-1.3102h3.09184z"/></g></g><g stroke="#888888"><g><path d="M257.84423,189.4259h6.94157v1.3102h-6.94157z"/><path d="M271.72738,190.73611h-6.94157v-1.3102h6.94157z"/></g><g><path d="M260.2587,189.42386h5.33967v1.3102h-5.33967z"/><path d="M269.31291,190.73406h-5.33967v-1.3102h5.33967z"/></g><g><path d="M258.19633,189.42386h3.44586v1.3102h-3.44586z"/><path d="M264.8361,190.73406h-3.44587v-1.3102h3.44587z"/></g></g><g stroke="none"><path d="M268.82714,128.38966h-4.27905v-15.40458c0,0 2.13976,-1.12881 4.27905,7.30291c0.81236,3.20182 0,8.10167 0,8.10167z"/><path d="M265.40389,128.38966h-4.27905c0,0 -0.50687,-4.93279 0.11411,-7.98756c1.74718,-8.59482 4.16494,-7.41702 4.16494,-7.41702z"/></g></g><g fill="#ffffff" stroke-width="0" stroke-linecap="butt"><path d="M246.62003,160.98018c1.24196,-1.45359 3.42716,-1.62515 4.88076,-0.38317c1.4536,1.24197 1.62516,3.42717 0.38319,4.88075c-1.24197,1.4536 -7.92474,6.88909 -9.37834,5.64712c-1.4536,-1.24197 2.87242,-8.69111 4.11439,-10.1447z" stroke="#888888"/><g stroke="#888888"><g><path d="M273.78463,127.20149l3.5609,3.04247l-22.62017,26.47453l-3.5609,-3.04248z"/><path d="M258.28628,159.76097l-3.5609,-3.04248l22.62016,-26.47453l3.5609,3.04247z"/></g><g><path d="M274.98792,128.30103l2.73915,2.34036l-22.62016,26.47452l-2.73915,-2.34037z"/><path d="M257.01241,158.74399l-2.73915,-2.34036l22.62016,-26.47452l2.73915,2.34036z"/></g><g><path d="M273.92999,127.39711l1.76767,1.51032l-22.62016,26.47452l-1.76767,-1.51032z"/><path d="M254.7159,156.78182l-1.76767,-1.51032l22.62016,-26.47452l1.76767,1.51032z"/></g></g><g stroke="#888888"><g><path d="M251.33455,153.47695l3.5609,3.04248l-2.54466,2.97825l-2.55456,-2.18264z"/><path d="M255.06019,161.81262l-2.70938,-2.31494l2.54466,-2.97825l3.5609,3.04247z"/></g><g><path d="M252.56915,154.53985l2.73915,2.34036l-2.54465,2.97825l-2.73915,-2.34036z"/><path d="M254.66916,161.48656l-2.73915,-2.34037l2.54465,-2.97825l2.73915,2.34036z"/></g><g><path d="M251.42274,153.56034l1.85613,1.5859l-2.54465,2.97825l-0.92721,-0.79222z"/><path d="M252.37262,159.52438l-1.76767,-1.51032l2.54465,-2.97825l1.76767,1.51032z"/></g></g><g stroke="#888888"><g><path d="M249.89374,157.24568l2.60617,2.22675l-2.80881,3.28742l-2.60617,-2.22675z"/><path d="M252.29729,164.98657l-2.60616,-2.22673l2.80881,-3.28742l2.60616,2.22673z"/></g><g><path d="M250.79585,158.02534l2.00474,1.71287l-2.80881,3.28742l-2.00474,-1.71287z"/><path d="M251.3864,164.2172l-2.00474,-1.71287l2.80881,-3.28742l2.00475,1.71287z"/></g><g><path d="M250.02155,157.36377l1.29372,1.10538l-2.80881,3.28742l-1.29372,-1.10538z"/><path d="M249.70561,162.78111l-1.29372,-1.10538l2.80881,-3.28742l1.29372,1.10538z"/></g></g><g stroke="#888888"><g><path d="M273.61852,126.92566l3.79314,3.2409l-2.01636,2.35994l-3.79314,-3.2409z"/><path d="M279.18845,135.7674l-3.79314,-3.2409l2.01636,-2.35994l3.79314,3.2409z"/></g><g><path d="M274.93474,128.05662l2.9178,2.49299l-2.01636,2.35994l-2.91779,-2.493z"/><path d="M277.86593,134.6438l-2.91779,-2.493l2.01636,-2.35994l2.91779,2.493z"/></g><g><path d="M273.8078,127.09373l1.88295,1.60882l-2.01636,2.35994l-1.88295,-1.60882z"/><path d="M275.41965,132.55366l-1.88295,-1.60882l2.01635,-2.35993l1.88295,1.60881z"/></g></g><path d="M271.92395,129.44191l7.05988,6.03204l-0.95243,1.11472l-7.05988,-6.03204z" stroke="none"/><g stroke="#888888"><g><path d="M274.5517,126.66944l3.38027,2.88814l-0.60755,0.71107l-3.38027,-2.88814z"/><path d="M280.70471,133.15682l-3.38027,-2.88815l0.60755,-0.71107l3.38027,2.88814z"/></g><g><path d="M275.7265,127.67513l2.6002,2.22165l-0.60755,0.71107l-2.60021,-2.22165z"/><path d="M279.52804,132.15336l-2.60021,-2.22166l0.60755,-0.71108l2.60022,2.22166z"/></g><g><path d="M274.7222,126.81706l1.67801,1.43371l-0.60755,0.71108l-1.67801,-1.43371z"/><path d="M277.34797,130.2907l-1.678,-1.43371l0.60755,-0.71107l1.678,1.43371z"/></g></g><g stroke="#888888"><g><path d="M274.71205,125.6458l3.76733,3.21885l-0.60755,0.71107l-3.76732,-3.21885z"/><path d="M281.63917,132.79458l-3.76732,-3.21885l0.60755,-0.71107l3.76732,3.21885z"/></g><g><path d="M276.02149,126.76651l2.89794,2.47604l-0.60755,0.71107l-2.89794,-2.47603z"/><path d="M280.32786,131.67609l-2.89795,-2.47604l0.60755,-0.71107l2.89795,2.47604z"/></g><g><path d="M274.9022,125.81018l1.87013,1.59786l-0.60755,0.71108l-1.87014,-1.59787z"/><path d="M277.8982,129.60016l-1.87014,-1.59787l0.60755,-0.71107l1.87014,1.59787z"/></g></g><g stroke="none"><path d="M248.00543,168.97224c-5.07088,3.58406 -5.70873,1.9792 -5.70873,1.9792l7.14321,-8.36037l2.32232,1.98422c0,0 -1.83121,3.03594 -3.7568,4.39695z"/><path d="M242.76117,171.3483c0,0 -1.85832,-0.48192 1.17892,-5.95667c1.0795,-1.94583 3.64195,-4.38792 3.64195,-4.38792l2.32232,1.98422z"/></g></g><g fill="#ffffff" stroke="none" stroke-linecap="butt"><path d="M42.83412,204.6667l-1.75247,-3.6053l77.98052,-37.90485l1.75247,3.6053z" stroke-width="NaN"/><path d="M186.93782,134.84348l-1.75247,-3.6053l77.98052,-37.90485l1.75247,3.6053z" stroke-width="NaN"/></g><text transform="translate(144.5,253.60837) scale(1.26875,1.26875)" font-size="40" xml:space="preserve" fill="#ffffff" fill-rule="nonzero" stroke="none" stroke-width="1" stroke-linecap="butt" stroke-linejoin="miter" stroke-miterlimit="10" stroke-dasharray="" stroke-dashoffset="0" font-family="Sans Serif" font-weight="normal" text-anchor="start" style="mix-blend-mode: normal"><tspan x="0" dy="0">致命瞄准</tspan></text><g fill="#ffffff" stroke="none" stroke-linecap="butt"><path d="M97.33331,38.83415l3.6053,-1.75247l37.90485,77.98052l-3.6053,1.75247z" stroke-width="NaN"/><path d="M167.15653,182.93783l3.6053,-1.75247l37.90485,77.98052l-3.6053,1.75247z" stroke-width="NaN"/></g><path d="M207.34995,122.58152l-108.69991,52.83696" fill="#ffffff" stroke="#000000" stroke-width="0.5" stroke-linecap="round"/><path d="M126.58152,94.65005l52.83696,108.69991" fill="#ffffff" stroke="#000000" stroke-width="0.5" stroke-linecap="round"/><g fill="#ffffff" stroke="#ff0000" stroke-width="0.5" stroke-linecap="round"><path d="M145.80497,152.49738l14.39006,-6.99473"/><path d="M149.50263,141.80498l6.99473,14.39006"/></g><g stroke="none" stroke-linecap="butt"><path d="M291.8125,235.00001c0,-4.24568 3.44182,-7.68751 7.68749,-7.68751c4.24568,0 7.68751,3.44182 7.68751,7.68751c0,4.24568 -3.44182,7.68751 -7.68751,7.68751c-4.24568,0 -7.68749,-3.44182 -7.68749,-7.68751z" fill="url(#color-1)" stroke-width="NaN"/><path d="M295.444,235.00001c0,-2.24006 1.81593,-4.05599 4.05599,-4.05599c2.24006,0 4.05599,1.81593 4.05599,4.05599c0,2.24006 -1.81593,4.05599 -4.05599,4.05599c-2.24006,0 -4.05599,-1.81593 -4.05599,-4.05599z" fill="#ffffff" stroke-width="NaN"/></g></g></g></g></svg>